<mxfile host="app.diagrams.net" modified="2023-11-20T06:47:32.205Z" agent="Mozilla/5.0 (Windows NT 10.0; Win64; x64) AppleWebKit/537.36 (KHTML, like Gecko) Chrome/116.0.0.0 Safari/537.36" version="22.1.3" etag="n2wnFedlDIwIE7hw-CPS" type="github">
  <diagram name="Page-1" id="AFAE-7H7kdtIkywLMjVk">
    <mxGraphModel>
      <root>
        <mxCell id="0" />
        <mxCell id="1" parent="0" />
      </root>
    </mxGraphModel>
  </diagram>
</mxfile>
